<?xml version="1.0" encoding="UTF-8" standalone="no"?>
<!-- Created with Inkscape (http://www.inkscape.org/) -->

<svg
   width="512"
   height="512"
   viewBox="0 0 512 512"
   version="1.1"
   id="svg1"
   xml:space="preserve"
   inkscape:version="1.4.2 (ebf0e940d0, 2025-05-08)"
   sodipodi:docname="io.github.reisaraujo-miguel.jflap-ng.svg"
   xmlns:inkscape="http://www.inkscape.org/namespaces/inkscape"
   xmlns:sodipodi="http://sodipodi.sourceforge.net/DTD/sodipodi-0.dtd"
   xmlns="http://www.w3.org/2000/svg"
   xmlns:svg="http://www.w3.org/2000/svg"><sodipodi:namedview
     id="namedview1"
     pagecolor="#ffffff"
     bordercolor="#000000"
     borderopacity="0.25"
     inkscape:showpageshadow="2"
     inkscape:pageopacity="0.0"
     inkscape:pagecheckerboard="0"
     inkscape:deskcolor="#d1d1d1"
     inkscape:document-units="px"
     inkscape:zoom="0.6808665"
     inkscape:cx="163.02755"
     inkscape:cy="323.85203"
     inkscape:window-width="1366"
     inkscape:window-height="740"
     inkscape:window-x="0"
     inkscape:window-y="0"
     inkscape:window-maximized="1"
     inkscape:current-layer="layer1"
     inkscape:export-bgcolor="#ffffff00" /><defs
     id="defs1"><rect
       x="202.85502"
       y="208.31681"
       width="268.10104"
       height="94.324889"
       id="rect3" /></defs><g
     inkscape:label="Layer 1"
     inkscape:groupmode="layer"
     id="layer1"><circle
       style="fill:#7500db;fill-opacity:1;stroke:#000000;stroke-width:5;stroke-dasharray:none"
       id="path1"
       r="150.4783"
       cy="256.24539"
       cx="334.9028" /><path
       style="fill:#ffffff;fill-opacity:1;stroke:#000000;stroke-width:5;stroke-dasharray:none"
       d="M 35.874782,111.48128 180.83565,256.39843 35.929938,400.96743 Z"
       id="path2"
       sodipodi:nodetypes="cccc" /><path
       style="font-size:12px;font-family:Ayar;-inkscape-font-specification:'Ayar, Normal';white-space:pre;stroke-width:3.52542"
       d="m 202.80747,221.51491 q -0.288,0 -0.504,-0.048 -0.216,-0.036 -0.384,-0.108 v -0.912 q 0.192,0.048 0.408,0.084 0.216,0.036 0.456,0.036 0.3,0 0.564,-0.12 0.276,-0.12 0.444,-0.42 0.168,-0.3 0.168,-0.84 v -8.52 h 1.08 v 8.436 q 0,1.236 -0.612,1.824 -0.612,0.588 -1.62,0.588 z m 5.56801,-2.28 h -1.08 v -8.568 h 4.788 v 0.948 h -3.708 v 3.036 h 3.48 v 0.948 h -3.48 z m 5.14799,0 v -8.568 h 1.08 v 7.608 h 3.744 v 0.96 z m 11.664,0 -1.032,-2.652 h -3.396 l -1.02,2.652 h -1.092 l 3.348,-8.604 h 0.972 l 3.336,8.604 z m -2.316,-6.204 q -0.036,-0.096 -0.12,-0.348 -0.084,-0.252 -0.168,-0.516 -0.072,-0.276 -0.12,-0.42 -0.084,0.372 -0.192,0.732 -0.108,0.348 -0.18,0.552 l -0.972,2.592 h 2.712 z m 6.876,-2.364 q 1.68,0 2.448,0.66 0.768,0.66 0.768,1.86 0,0.708 -0.324,1.332 -0.312,0.612 -1.068,0.996 -0.744,0.384 -2.028,0.384 h -0.984 v 3.336 h -1.08 v -8.568 z m -0.096,0.924 h -1.092 v 3.384 h 0.864 q 1.224,0 1.824,-0.396 0.6,-0.396 0.6,-1.344 0,-0.828 -0.528,-1.236 -0.528,-0.408 -1.668,-0.408 z m 15,7.644 h -1.26 l -4.584,-7.116 h -0.048 q 0.024,0.42 0.06,1.044 0.036,0.624 0.036,1.284 v 4.788 h -0.996 v -8.568 h 1.248 l 4.572,7.092 h 0.048 q -0.012,-0.192 -0.036,-0.576 -0.012,-0.384 -0.036,-0.84 -0.012,-0.456 -0.012,-0.84 v -4.836 h 1.008 z m 6.048,-4.524 h 2.964 v 4.2 q -0.696,0.228 -1.404,0.336 -0.708,0.108 -1.608,0.108 -1.332,0 -2.244,-0.528 -0.912,-0.54 -1.392,-1.524 -0.468,-0.996 -0.468,-2.352 0,-1.344 0.528,-2.328 0.528,-0.984 1.512,-1.524 0.996,-0.552 2.4,-0.552 0.72,0 1.356,0.132 0.648,0.132 1.2,0.372 l -0.408,0.936 q -0.456,-0.204 -1.032,-0.348 -0.564,-0.144 -1.176,-0.144 -1.536,0 -2.4,0.924 -0.852,0.924 -0.852,2.532 0,1.02 0.324,1.812 0.336,0.78 1.044,1.224 0.708,0.432 1.86,0.432 0.564,0 0.96,-0.06 0.396,-0.06 0.72,-0.144 v -2.544 h -1.884 z"
       id="text3"
       transform="matrix(5.3031331,0,0,5.3031331,-873.10568,-889.39526)"
       aria-label="JFLAP NG" /></g></svg>
